<?xml version="1.0" encoding="UTF-8" standalone="no"?>
<!-- Created with Inkscape (http://www.inkscape.org/) -->

<svg
   xmlns:dc="http://purl.org/dc/elements/1.1/"
   xmlns:cc="http://creativecommons.org/ns#"
   xmlns:rdf="http://www.w3.org/1999/02/22-rdf-syntax-ns#"
   xmlns:svg="http://www.w3.org/2000/svg"
   xmlns="http://www.w3.org/2000/svg"
   xmlns:sodipodi="http://sodipodi.sourceforge.net/DTD/sodipodi-0.dtd"
   xmlns:inkscape="http://www.inkscape.org/namespaces/inkscape"
   width="42.410561mm"
   height="16.398876mm"
   viewBox="0 0 42.410561 16.398876"
   version="1.1"
   id="svg863"
   inkscape:version="0.92.3 (2405546, 2018-03-11)"
   sodipodi:docname="logo.svg">
  <defs
     id="defs857" />
  <sodipodi:namedview
     id="base"
     pagecolor="#ffffff"
     bordercolor="#666666"
     borderopacity="1.0"
     inkscape:pageopacity="0.0"
     inkscape:pageshadow="2"
     inkscape:zoom="0.7"
     inkscape:cx="-47.388894"
     inkscape:cy="-79.900279"
     inkscape:document-units="mm"
     inkscape:current-layer="layer1"
     showgrid="false"
     inkscape:window-width="1853"
     inkscape:window-height="1025"
     inkscape:window-x="67"
     inkscape:window-y="27"
     inkscape:window-maximized="1" />
  <metadata
     id="metadata860">
    <rdf:RDF>
      <cc:Work
         rdf:about="">
        <dc:format>image/svg+xml</dc:format>
        <dc:type
           rdf:resource="http://purl.org/dc/dcmitype/StillImage" />
        <dc:title></dc:title>
      </cc:Work>
    </rdf:RDF>
  </metadata>
  <g
     inkscape:label="Layer 1"
     inkscape:groupmode="layer"
     id="layer1"
     transform="translate(-34.735196,-99.056514)">
    <g
       transform="matrix(0.26458333,0,0,0.26458333,10.961807,74.183035)"
       style="fill:#ffffff"
       id="svg_3">
      <rect
         style="fill:#ffffff"
         x="89.854057"
         y="94.010002"
         width="160.29001"
         height="5"
         id="svg_4" />
      <rect
         style="fill:#ffffff"
         x="89.85218"
         y="150.99001"
         width="160.29001"
         height="5"
         id="svg_5" />
      <g
         style="fill:#ffffff"
         id="svg_6">
        <g
           id="svg_7">
          <g
             id="svg_8">
            <path
               inkscape:connector-curvature="0"
               d="m 95.162182,130.0275 v 0 -25.22 h -3.1 v -0.8 h 10.119998 v 0.8 h -3.129998 v 23.69 0 q -0.16,8.91 -9.2,9.85 v 0 -0.76 0 q 4.85,-2.17 5.31,-7.56 z m 12.599998,-0.84 v 0 -15.22 l 3.93,-0.76 v 15.41 0 q -0.16,5.47 4.24,5.28 v 0 0 q 2.87,0 5.88,-2.95 v 0 -16.98 l 3.88,-0.76 v 21.33 l 2.37,-0.49 v 0.76 l -6.25,1.25 v -0.76 -3.08 0 q -3.36,3.84 -7.37,3.84 v 0 0 q -6.72,0.04 -6.68,-6.87 z m 28.4,5.27 v 0 10.76 h 2.32 v 0.77 h -8.57 v -0.77 h 2.32 v -31.25 l 3.93,-0.76 v 1.6 0 q 2.03,-1.6 4.63,-1.6 v 0 0 q 9.49,0.65 10.18,11.49 v 0 0 q -0.69,10.72 -10.18,11.36 v 0 0 q -2.72,0 -4.63,-1.6 z m 0,-18.47 v 0 17.44 0 q 1.8,1.11 3.87,1.11 v 0 0 q 6.56,-0.57 7.05,-9.84 v 0 0 q -0.49,-9.4 -7.05,-9.96 v 0 0 q -2.19,0 -3.87,1.25 z m 27.09,19.31 h -8.59 v -0.76 h 2.36 v -20.57 l 3.89,-0.76 v 21.33 h 2.34 z m -4.32,-26.68 v 0 0 q -2.11,-0.19 -2.3,-2.28 v 0 0 q 0.19,-2.11 2.3,-2.33 v 0 0 q 2.17,0.22 2.37,2.33 v 0 0 q -0.2,2.09 -2.37,2.28 z m 11.51,6.88 h -3.11 v -0.76 h 3.11 v -5.36 l 3.88,-0.76 v 6.12 h 5.49 v 0.76 h -5.49 v 14.53 0 q -0.11,4.55 2.37,4.51 v 0 0 q 1.44,-0.04 3.12,-1.48 v 0 h 0.76 v 0 q -1.81,2.96 -4.68,3 v 0 0 q -5.53,-0.04 -5.45,-6.03 v 0 -2.29 z m 17.13,8.81 v 0 h 11.64 v 0 q -0.61,-9.5 -5.84,-10.34 v 0 0 q -5.2,0.88 -5.8,10.34 z m 15.56,0.76 v 0 h -3.92 -11.64 v 0 q 0.72,9.39 6.52,10.23 v 0 0 q 4.71,-0.15 7.48,-4.53 v 0 h 0.76 v 0 q -3.08,5.14 -8.57,5.29 v 0 0 q -9.47,-0.8 -10.12,-11.4 v 0 0 q 0,-0.2 0,-0.35 v 0 0 q 0.84,-10.34 9.73,-11.1 v 0 0 q 8.92,0.76 9.76,11.1 v 0 0 q 0,0.15 0,0.35 v 0 0 q 0,0.19 0,0.41 z m 19.34,-8.73 v 0 h -0.76 v 0 q -1.76,-1.53 -3.87,-1.57 v 0 0 q -5,0.53 -5.45,7.02 v 0 12.75 h 2.33 v 0.76 h -8.56 v -0.76 h 2.36 v -20.57 l 3.87,-0.76 v 1.21 0 q 1.93,-1.21 4.65,-1.21 v 0 0 q 3.55,0.04 5.43,3.13 z m 8.51,-11.53 h -0.31 v 29.73 h 0.31 3.21 v 0 q 11.29,-1.07 12.09,-14.84 v 0 0 q -0.8,-13.75 -12.09,-14.89 v 0 z m 5.18,30.49 v 0 h -11.72 v -0.76 h 2.31 v -29.73 h -2.31 v -0.8 h 11.72 v 0 q 0.8,0 1.5,0.14 v 0 0 q 11.9,2.23 12.48,15.55 v 0 0 q -0.15,11.29 -9.66,14.84 v 0 0 q -2.17,0.76 -4.32,0.76 z"
               id="svg_9" />
          </g>
          <!---->
        </g>
        <!---->
      </g>
    </g>
  </g>
</svg>
